<svg id="wave" style="transform:rotate(0deg); transition: 0.3s" viewBox="0 0 1440 490" version="1.1" xmlns="http://www.w3.org/2000/svg"><defs><linearGradient id="sw-gradient-0" x1="0" x2="0" y1="1" y2="0"><stop stop-color="rgba(80.898, 69.409, 130.147, 0)" offset="0%"></stop><stop stop-color="rgba(141.882, 137.33, 189.343, 1)" offset="100%"></stop></linearGradient></defs><path style="transform:translate(0, 0px); opacity:1" fill="url(#sw-gradient-0)" d="M0,98L180,245L360,196L540,98L720,294L900,245L1080,343L1260,245L1440,147L1620,49L1800,343L1980,49L2160,196L2340,147L2520,49L2700,294L2880,0L3060,441L3240,441L3420,98L3600,49L3780,343L3960,196L4140,441L4320,147L4320,490L4140,490L3960,490L3780,490L3600,490L3420,490L3240,490L3060,490L2880,490L2700,490L2520,490L2340,490L2160,490L1980,490L1800,490L1620,490L1440,490L1260,490L1080,490L900,490L720,490L540,490L360,490L180,490L0,490Z"></path></svg>