<svg id="wave" style="transform:rotate(0deg); transition: 0.3s" viewBox="0 0 1440 490" version="1.1" xmlns="http://www.w3.org/2000/svg"><defs><linearGradient id="sw-gradient-0" x1="0" x2="0" y1="1" y2="0"><stop stop-color="rgba(146.176, 155.769, 198.45, 0)" offset="0%"></stop><stop stop-color="rgba(169.604, 175.321, 239.432, 1)" offset="100%"></stop></linearGradient></defs><path style="transform:translate(0, 0px); opacity:1" fill="url(#sw-gradient-0)" d="M0,98L18.5,147C36.9,196,74,294,111,351.2C147.7,408,185,425,222,392C258.5,359,295,278,332,253.2C369.2,229,406,261,443,294C480,327,517,359,554,334.8C590.8,310,628,229,665,220.5C701.5,212,738,278,775,285.8C812.3,294,849,245,886,196C923.1,147,960,98,997,122.5C1033.8,147,1071,245,1108,277.7C1144.6,310,1182,278,1218,285.8C1255.4,294,1292,343,1329,359.3C1366.2,376,1403,359,1440,351.2C1476.9,343,1514,343,1551,359.3C1587.7,376,1625,408,1662,375.7C1698.5,343,1735,245,1772,179.7C1809.2,114,1846,82,1883,57.2C1920,33,1957,16,1994,81.7C2030.8,147,2068,294,2105,302.2C2141.5,310,2178,180,2215,138.8C2252.3,98,2289,147,2326,171.5C2363.1,196,2400,196,2437,196C2473.8,196,2511,196,2548,220.5C2584.6,245,2622,294,2640,318.5L2658.5,343L2658.5,490L2640,490C2621.5,490,2585,490,2548,490C2510.8,490,2474,490,2437,490C2400,490,2363,490,2326,490C2289.2,490,2252,490,2215,490C2178.5,490,2142,490,2105,490C2067.7,490,2031,490,1994,490C1956.9,490,1920,490,1883,490C1846.2,490,1809,490,1772,490C1735.4,490,1698,490,1662,490C1624.6,490,1588,490,1551,490C1513.8,490,1477,490,1440,490C1403.1,490,1366,490,1329,490C1292.3,490,1255,490,1218,490C1181.5,490,1145,490,1108,490C1070.8,490,1034,490,997,490C960,490,923,490,886,490C849.2,490,812,490,775,490C738.5,490,702,490,665,490C627.7,490,591,490,554,490C516.9,490,480,490,443,490C406.2,490,369,490,332,490C295.4,490,258,490,222,490C184.6,490,148,490,111,490C73.8,490,37,490,18,490L0,490Z"></path></svg>